<?xml version="1.0" encoding="UTF-8" standalone="no"?>
<svg width="18mm" height="20mm" viewBox="0 0 18 20" version="1.1" xmlns="http://www.w3.org/2000/svg">
  <g>
    <!-- Whitebox hex background -->
    <path
      style="fill:#ffffff;fill-opacity:1;stroke:#000000;stroke-width:1.5;stroke-miterlimit:4;stroke-dasharray:none;stroke-dashoffset:0"
      d="M 9.0,2.8 14.4,5.9 14.4,12.1 9.0,15.2 3.6,12.1 3.6,5.9 Z" />
    <!-- Gear icon: outer circle with notches -->
    <circle cx="9.0" cy="9.0" r="3.8" style="fill:none;stroke:#000000;stroke-width:0.6" />
    <!-- Gear teeth (12 notches around the gear) -->
    <rect x="8.7" y="4.8" width="0.6" height="0.8" rx="0.15" ry="0.15" style="fill:#000000" />
    <g transform="rotate(30 9.0 9.0)">
      <rect x="8.7" y="4.8" width="0.6" height="0.8" rx="0.15" ry="0.15" style="fill:#000000" />
    </g>
    <g transform="rotate(60 9.0 9.0)">
      <rect x="8.7" y="4.8" width="0.6" height="0.8" rx="0.15" ry="0.15" style="fill:#000000" />
    </g>
    <g transform="rotate(90 9.0 9.0)">
      <rect x="8.7" y="4.8" width="0.6" height="0.8" rx="0.15" ry="0.15" style="fill:#000000" />
    </g>
    <g transform="rotate(120 9.0 9.0)">
      <rect x="8.7" y="4.8" width="0.6" height="0.8" rx="0.15" ry="0.15" style="fill:#000000" />
    </g>
    <g transform="rotate(150 9.0 9.0)">
      <rect x="8.7" y="4.8" width="0.6" height="0.8" rx="0.15" ry="0.15" style="fill:#000000" />
    </g>
    <g transform="rotate(180 9.0 9.0)">
      <rect x="8.7" y="4.8" width="0.6" height="0.8" rx="0.15" ry="0.15" style="fill:#000000" />
    </g>
    <g transform="rotate(210 9.0 9.0)">
      <rect x="8.7" y="4.8" width="0.6" height="0.8" rx="0.15" ry="0.15" style="fill:#000000" />
    </g>
    <g transform="rotate(240 9.0 9.0)">
      <rect x="8.7" y="4.8" width="0.6" height="0.8" rx="0.15" ry="0.15" style="fill:#000000" />
    </g>
    <g transform="rotate(270 9.0 9.0)">
      <rect x="8.7" y="4.8" width="0.6" height="0.8" rx="0.15" ry="0.15" style="fill:#000000" />
    </g>
    <g transform="rotate(300 9.0 9.0)">
      <rect x="8.7" y="4.8" width="0.6" height="0.8" rx="0.15" ry="0.15" style="fill:#000000" />
    </g>
    <g transform="rotate(330 9.0 9.0)">
      <rect x="8.7" y="4.8" width="0.6" height="0.8" rx="0.15" ry="0.15" style="fill:#000000" />
    </g>
    <!-- Inner circle -->
    <circle cx="9.0" cy="9.0" r="1.2" style="fill:#000000" />
  </g>
</svg>
